<?xml version="1.0" encoding="UTF-8" standalone="no"?>
<!DOCTYPE svg PUBLIC "-//W3C//DTD SVG 1.1//EN"
 "http://www.w3.org/Graphics/SVG/1.1/DTD/svg11.dtd">
<!-- Generated by graphviz version 2.38.0 (20140413.2041)
 -->
<!-- Title: simple.c.011t.cfg Pages: 1 -->
<svg width="604pt" height="860pt"
 viewBox="0.00 0.00 604.00 860.00" xmlns="http://www.w3.org/2000/svg" xmlns:xlink="http://www.w3.org/1999/xlink">
<g id="graph0" class="graph" transform="scale(1 1) rotate(0) translate(4 856)">
<title>simple.c.011t.cfg</title>
<polygon fill="white" stroke="none" points="-4,4 -4,-856 600,-856 600,4 -4,4"/>
<g id="clust2" class="cluster"><title>cluster_0_1</title>
<polygon fill="#e0e0e0" stroke="darkgreen" stroke-width="2" points="162,-8 162,-639 587,-639 587,-8 162,-8"/>
<text text-anchor="middle" x="192" y="-623.8" font-family="Times,serif" font-size="14.00">loop 1</text>
</g>
<!-- fn_0_basic_block_7 -->
<g id="node1" class="node"><title>fn_0_basic_block_7</title>
<polygon fill="lightgrey" stroke="black" points="170,-493.5 170,-607.5 292,-607.5 292,-493.5 170,-493.5"/>
<text text-anchor="middle" x="231" y="-592.3" font-family="Times,serif" font-size="14.00">FREQ:0</text>
<polyline fill="none" stroke="black" points="170,-584.5 292,-584.5 "/>
<text text-anchor="start" x="178" y="-569.3" font-family="Times,serif" font-size="14.00">&lt;bb 7&gt;:</text>
<polyline fill="none" stroke="black" points="170,-561.5 292,-561.5 "/>
<text text-anchor="start" x="178" y="-546.3" font-family="Times,serif" font-size="14.00">if (i &lt;= 5)</text>
<text text-anchor="start" x="178" y="-531.3" font-family="Times,serif" font-size="14.00"> &#160;goto &lt;bb 3&gt;;</text>
<text text-anchor="start" x="178" y="-516.3" font-family="Times,serif" font-size="14.00">else</text>
<text text-anchor="start" x="178" y="-501.3" font-family="Times,serif" font-size="14.00"> &#160;goto &lt;bb 8&gt;;</text>
</g>
<!-- fn_0_basic_block_3 -->
<g id="node2" class="node"><title>fn_0_basic_block_3</title>
<polygon fill="lightgrey" stroke="black" points="173.5,-281.5 173.5,-441.5 342.5,-441.5 342.5,-281.5 173.5,-281.5"/>
<text text-anchor="middle" x="258" y="-426.3" font-family="Times,serif" font-size="14.00">FREQ:0</text>
<polyline fill="none" stroke="black" points="173.5,-418.5 342.5,-418.5 "/>
<text text-anchor="start" x="181.5" y="-403.3" font-family="Times,serif" font-size="14.00">&lt;bb 3&gt;:</text>
<polyline fill="none" stroke="black" points="173.5,-395.5 342.5,-395.5 "/>
<text text-anchor="start" x="181.5" y="-380.3" font-family="Times,serif" font-size="14.00">i.0 = (unsigned int) i;</text>
<polyline fill="none" stroke="black" points="173.5,-372.5 342.5,-372.5 "/>
<text text-anchor="start" x="181.5" y="-357.3" font-family="Times,serif" font-size="14.00">D.2205 = i.0 &amp; 1;</text>
<polyline fill="none" stroke="black" points="173.5,-349.5 342.5,-349.5 "/>
<text text-anchor="start" x="181.5" y="-334.3" font-family="Times,serif" font-size="14.00">if (D.2205 == 0)</text>
<text text-anchor="start" x="181.5" y="-319.3" font-family="Times,serif" font-size="14.00"> &#160;goto &lt;bb 4&gt;;</text>
<text text-anchor="start" x="181.5" y="-304.3" font-family="Times,serif" font-size="14.00">else</text>
<text text-anchor="start" x="181.5" y="-289.3" font-family="Times,serif" font-size="14.00"> &#160;goto &lt;bb 5&gt;;</text>
</g>
<!-- fn_0_basic_block_7&#45;&gt;fn_0_basic_block_3 -->
<g id="edge8" class="edge"><title>fn_0_basic_block_7:s&#45;&gt;fn_0_basic_block_3:n</title>
<path fill="none" stroke="black" stroke-width="2" d="M231,-493C231,-471.16 250.579,-468.131 256.392,-451.876"/>
<polygon fill="black" stroke="black" stroke-width="2" points="259.847,-452.433 258,-442 252.938,-451.307 259.847,-452.433"/>
<text text-anchor="middle" x="269" y="-463.8" font-family="Times,serif" font-size="14.00">[0%]</text>
</g>
<!-- fn_0_basic_block_8 -->
<g id="node9" class="node"><title>fn_0_basic_block_8</title>
<polygon fill="lightgrey" stroke="black" points="38.5,-327 38.5,-396 141.5,-396 141.5,-327 38.5,-327"/>
<text text-anchor="middle" x="90" y="-380.8" font-family="Times,serif" font-size="14.00">FREQ:0</text>
<polyline fill="none" stroke="black" points="38.5,-373 141.5,-373 "/>
<text text-anchor="start" x="46.5" y="-357.8" font-family="Times,serif" font-size="14.00">&lt;bb 8&gt;:</text>
<polyline fill="none" stroke="black" points="38.5,-350 141.5,-350 "/>
<text text-anchor="start" x="46.5" y="-334.8" font-family="Times,serif" font-size="14.00">D.2209 = 0;</text>
</g>
<!-- fn_0_basic_block_7&#45;&gt;fn_0_basic_block_8 -->
<g id="edge9" class="edge"><title>fn_0_basic_block_7:s&#45;&gt;fn_0_basic_block_8:n</title>
<path fill="none" stroke="black" stroke-width="2" d="M231,-493C231,-477.068 213.414,-483.596 200,-475 152.697,-444.686 97.1889,-455.711 90.6407,-407.572"/>
<polygon fill="black" stroke="black" stroke-width="2" points="94.1279,-407.258 90,-397.5 87.142,-407.702 94.1279,-407.258"/>
<text text-anchor="middle" x="217" y="-463.8" font-family="Times,serif" font-size="14.00">[0%]</text>
</g>
<!-- fn_0_basic_block_4 -->
<g id="node3" class="node"><title>fn_0_basic_block_4</title>
<polygon fill="lightgrey" stroke="black" points="169.5,-141.5 169.5,-225.5 346.5,-225.5 346.5,-141.5 169.5,-141.5"/>
<text text-anchor="middle" x="258" y="-210.3" font-family="Times,serif" font-size="14.00">FREQ:0</text>
<polyline fill="none" stroke="black" points="169.5,-202.5 346.5,-202.5 "/>
<text text-anchor="start" x="177.5" y="-187.3" font-family="Times,serif" font-size="14.00">&lt;bb 4&gt;:</text>
<polyline fill="none" stroke="black" points="169.5,-179.5 346.5,-179.5 "/>
<text text-anchor="start" x="177.5" y="-164.3" font-family="Times,serif" font-size="14.00">puts (&quot;Even number&quot;);</text>
<text text-anchor="start" x="177.5" y="-149.3" font-family="Times,serif" font-size="14.00">goto &lt;bb 6&gt;;</text>
</g>
<!-- fn_0_basic_block_3&#45;&gt;fn_0_basic_block_4 -->
<g id="edge3" class="edge"><title>fn_0_basic_block_3:s&#45;&gt;fn_0_basic_block_4:n</title>
<path fill="none" stroke="black" stroke-width="2" d="M258,-281C258,-260.562 258,-253.058 258,-236.662"/>
<polygon fill="black" stroke="black" stroke-width="2" points="261.5,-236.5 258,-226.5 254.5,-236.5 261.5,-236.5"/>
<text text-anchor="middle" x="275" y="-251.8" font-family="Times,serif" font-size="14.00">[0%]</text>
</g>
<!-- fn_0_basic_block_5 -->
<g id="node4" class="node"><title>fn_0_basic_block_5</title>
<polygon fill="lightgrey" stroke="black" points="364.5,-149 364.5,-218 559.5,-218 559.5,-149 364.5,-149"/>
<text text-anchor="middle" x="462" y="-202.8" font-family="Times,serif" font-size="14.00">FREQ:0</text>
<polyline fill="none" stroke="black" points="364.5,-195 559.5,-195 "/>
<text text-anchor="start" x="372.5" y="-179.8" font-family="Times,serif" font-size="14.00">&lt;bb 5&gt;:</text>
<polyline fill="none" stroke="black" points="364.5,-172 559.5,-172 "/>
<text text-anchor="start" x="372.5" y="-156.8" font-family="Times,serif" font-size="14.00">puts (&quot;Uneven number&quot;);</text>
</g>
<!-- fn_0_basic_block_3&#45;&gt;fn_0_basic_block_5 -->
<g id="edge4" class="edge"><title>fn_0_basic_block_3:s&#45;&gt;fn_0_basic_block_5:n</title>
<path fill="none" stroke="black" stroke-width="2" d="M258,-281C258,-259.915 419.815,-246.384 455.213,-226.951"/>
<polygon fill="black" stroke="black" stroke-width="2" points="457.853,-229.25 462,-219.5 452.678,-224.536 457.853,-229.25"/>
<text text-anchor="middle" x="383" y="-251.8" font-family="Times,serif" font-size="14.00">[0%]</text>
</g>
<!-- fn_0_basic_block_6 -->
<g id="node5" class="node"><title>fn_0_basic_block_6</title>
<polygon fill="lightgrey" stroke="black" points="282.5,-16.5 282.5,-85.5 363.5,-85.5 363.5,-16.5 282.5,-16.5"/>
<text text-anchor="middle" x="323" y="-70.3" font-family="Times,serif" font-size="14.00">FREQ:0</text>
<polyline fill="none" stroke="black" points="282.5,-62.5 363.5,-62.5 "/>
<text text-anchor="start" x="290.5" y="-47.3" font-family="Times,serif" font-size="14.00">&lt;bb 6&gt;:</text>
<polyline fill="none" stroke="black" points="282.5,-39.5 363.5,-39.5 "/>
<text text-anchor="start" x="290.5" y="-24.3" font-family="Times,serif" font-size="14.00">i = i + 1;</text>
</g>
<!-- fn_0_basic_block_4&#45;&gt;fn_0_basic_block_6 -->
<g id="edge5" class="edge"><title>fn_0_basic_block_4:s&#45;&gt;fn_0_basic_block_6:n</title>
<path fill="none" stroke="blue" stroke-width="2" d="M258,-140.5C258,-106.776 310.012,-119.943 320.983,-96.1105"/>
<polygon fill="blue" stroke="blue" stroke-width="2" points="324.476,-96.4915 323,-86 317.611,-95.1222 324.476,-96.4915"/>
<text text-anchor="middle" x="331" y="-107.8" font-family="Times,serif" font-size="14.00">[0%]</text>
</g>
<!-- fn_0_basic_block_5&#45;&gt;fn_0_basic_block_6 -->
<g id="edge6" class="edge"><title>fn_0_basic_block_5:s&#45;&gt;fn_0_basic_block_6:n</title>
<path fill="none" stroke="blue" stroke-width="2" d="M462,-147.5C462,-132.92 358.41,-110.267 330.084,-93.4791"/>
<polygon fill="blue" stroke="blue" stroke-width="2" points="332.418,-90.8533 323,-86 327.336,-95.6671 332.418,-90.8533"/>
<text text-anchor="middle" x="413" y="-107.8" font-family="Times,serif" font-size="14.00">[0%]</text>
</g>
<!-- fn_0_basic_block_6&#45;&gt;fn_0_basic_block_7 -->
<g id="edge7" class="edge"><title>fn_0_basic_block_6:s&#45;&gt;fn_0_basic_block_7:n</title>
<path fill="none" stroke="blue" stroke-width="2" stroke-dasharray="1,5" d="M323,-15C323,-2.54698 638.484,-17.8549 569,-230 504.227,-427.763 476.864,-511.944 292,-607.5 282.967,-612.169 253.171,-618.023 238.838,-614.939"/>
<polygon fill="blue" stroke="blue" stroke-width="2" points="240.949,-612.143 231,-608.5 236.505,-617.552 240.949,-612.143"/>
<text text-anchor="middle" x="579" y="-251.8" font-family="Times,serif" font-size="14.00">[0%]</text>
</g>
<!-- fn_0_basic_block_0 -->
<g id="node6" class="node"><title>fn_0_basic_block_0</title>
<polygon fill="white" stroke="black" points="231,-852 167.656,-834 231,-816 294.344,-834 231,-852"/>
<polyline fill="none" stroke="black" points="179.199,-837.28 179.199,-830.72 "/>
<polyline fill="none" stroke="black" points="219.457,-819.28 242.543,-819.28 "/>
<polyline fill="none" stroke="black" points="282.801,-830.72 282.801,-837.28 "/>
<polyline fill="none" stroke="black" points="242.543,-848.72 219.457,-848.72 "/>
<text text-anchor="middle" x="231" y="-830.3" font-family="Times,serif" font-size="14.00">ENTRY</text>
</g>
<!-- fn_0_basic_block_1 -->
<g id="node7" class="node"><title>fn_0_basic_block_1</title>
<polygon fill="white" stroke="black" points="90,-69 41.0684,-51 90,-33 138.932,-51 90,-69"/>
<polyline fill="none" stroke="black" points="52.3305,-55.1429 52.3305,-46.8571 "/>
<polyline fill="none" stroke="black" points="78.7378,-37.1429 101.262,-37.1429 "/>
<polyline fill="none" stroke="black" points="127.669,-46.8571 127.669,-55.1429 "/>
<polyline fill="none" stroke="black" points="101.262,-64.8571 78.7378,-64.8571 "/>
<text text-anchor="middle" x="90" y="-47.3" font-family="Times,serif" font-size="14.00">EXIT</text>
</g>
<!-- fn_0_basic_block_0&#45;&gt;fn_0_basic_block_1 -->
<!-- fn_0_basic_block_2 -->
<g id="node8" class="node"><title>fn_0_basic_block_2</title>
<polygon fill="lightgrey" stroke="black" points="174.5,-680.5 174.5,-764.5 287.5,-764.5 287.5,-680.5 174.5,-680.5"/>
<text text-anchor="middle" x="231" y="-749.3" font-family="Times,serif" font-size="14.00">FREQ:0</text>
<polyline fill="none" stroke="black" points="174.5,-741.5 287.5,-741.5 "/>
<text text-anchor="start" x="182.5" y="-726.3" font-family="Times,serif" font-size="14.00">&lt;bb 2&gt;:</text>
<polyline fill="none" stroke="black" points="174.5,-718.5 287.5,-718.5 "/>
<text text-anchor="start" x="182.5" y="-703.3" font-family="Times,serif" font-size="14.00">i = 0;</text>
<text text-anchor="start" x="182.5" y="-688.3" font-family="Times,serif" font-size="14.00">goto &lt;bb 7&gt;;</text>
</g>
<!-- fn_0_basic_block_0&#45;&gt;fn_0_basic_block_2 -->
<g id="edge1" class="edge"><title>fn_0_basic_block_0:s&#45;&gt;fn_0_basic_block_2:n</title>
<path fill="none" stroke="blue" stroke-width="2" d="M231,-816C231,-797.229 231,-790.117 231,-775.354"/>
<polygon fill="blue" stroke="blue" stroke-width="2" points="234.5,-775 231,-765 227.5,-775 234.5,-775"/>
<text text-anchor="middle" x="248" y="-786.8" font-family="Times,serif" font-size="14.00">[0%]</text>
</g>
<!-- fn_0_basic_block_2&#45;&gt;fn_0_basic_block_7 -->
<g id="edge2" class="edge"><title>fn_0_basic_block_2:s&#45;&gt;fn_0_basic_block_7:n</title>
<path fill="none" stroke="blue" stroke-width="2" d="M231,-680C231,-651.946 231,-642.467 231,-618.767"/>
<polygon fill="blue" stroke="blue" stroke-width="2" points="234.5,-618.5 231,-608.5 227.5,-618.5 234.5,-618.5"/>
<text text-anchor="middle" x="248" y="-650.8" font-family="Times,serif" font-size="14.00">[0%]</text>
</g>
<!-- fn_0_basic_block_9 -->
<g id="node10" class="node"><title>fn_0_basic_block_9</title>
<polygon fill="lightgrey" stroke="black" points="28.5,-137.5 28.5,-229.5 151.5,-229.5 151.5,-137.5 28.5,-137.5"/>
<text text-anchor="middle" x="90" y="-214.3" font-family="Times,serif" font-size="14.00">FREQ:0</text>
<polyline fill="none" stroke="black" points="28.5,-206.5 151.5,-206.5 "/>
<text text-anchor="start" x="36.5" y="-191.3" font-family="Times,serif" font-size="14.00">&lt;bb 9&gt;:</text>
<polyline fill="none" stroke="black" points="28.5,-183.5 151.5,-183.5 "/>
<text text-anchor="start" x="36.5" y="-168.3" font-family="Times,serif" font-size="14.00">&lt;L6&gt;:</text>
<polyline fill="none" stroke="black" points="28.5,-160.5 151.5,-160.5 "/>
<text text-anchor="start" x="36.5" y="-145.3" font-family="Times,serif" font-size="14.00">return D.2209;</text>
</g>
<!-- fn_0_basic_block_8&#45;&gt;fn_0_basic_block_9 -->
<g id="edge10" class="edge"><title>fn_0_basic_block_8:s&#45;&gt;fn_0_basic_block_9:n</title>
<path fill="none" stroke="blue" stroke-width="2" d="M90,-325.5C90,-286.703 90,-274.503 90,-240.278"/>
<polygon fill="blue" stroke="blue" stroke-width="2" points="93.5001,-240 90,-230 86.5001,-240 93.5001,-240"/>
<text text-anchor="middle" x="107" y="-251.8" font-family="Times,serif" font-size="14.00">[0%]</text>
</g>
<!-- fn_0_basic_block_9&#45;&gt;fn_0_basic_block_1 -->
<g id="edge11" class="edge"><title>fn_0_basic_block_9:s&#45;&gt;fn_0_basic_block_1:n</title>
<path fill="none" stroke="black" stroke-width="2" d="M90,-137C90,-110.944 90,-101.988 90,-80.207"/>
<polygon fill="black" stroke="black" stroke-width="2" points="93.5001,-80 90,-70 86.5001,-80 93.5001,-80"/>
<text text-anchor="middle" x="107" y="-107.8" font-family="Times,serif" font-size="14.00">[0%]</text>
</g>
</g>
</svg>
